<svg version="1" xmlns="http://www.w3.org/2000/svg" width="382.667" height="382.667" viewBox="0 0 287.000000 287.000000"><path d="M130 8.1c-11.1 1-27.4 4.9-38 9.1-41.2 16.2-73.3 54.2-82.5 97.6-9.7 46.2 4.1 92.9 37.3 125.8 19 18.9 41.7 31 69.2 37 12 2.6 41 2.7 53 .1 33.8-7.3 61.2-24.2 81.2-50.1 18.5-23.9 27.4-48.7 28.5-79.2.7-18.4-1-30.4-6.7-47.5-4.4-13.4-8.2-21.4-15.3-31.9C228.6 26.8 180.3 3.6 130 8.1zm16 51.4c0 .8-.9 1.5-2 1.5-2 0-2.6-1.1-1.3-2.3 1.2-1.3 3.3-.7 3.3.8zm-18.8 10.1c2.1 11 2.2 13.7.6 13.2-.8-.3-2-4.6-3-9.9-2.1-11.5-2.2-13.2-.6-12.7.7.3 2.1 4.5 3 9.4zm36 2.3c-2 10.1-2.6 12-3.8 10.8-.6-.6 2.4-20.5 3.3-22 .3-.5 1-.4 1.5.1.6.6.2 4.7-1 11.1zm-17.4-1.6c.2 1-.3 1.7-1.2 1.7-1.8 0-2.9-1.6-2.1-3.1.9-1.4 2.9-.6 3.3 1.4zM95 73c0 1.1-.7 2-1.5 2-1.5 0-2.1-2.1-.8-3.3C93.9 70.4 95 71 95 73zm101.6-.9c1 1.7-1.3 3.6-2.7 2.2-1.2-1.2-.4-3.3 1.1-3.3.5 0 1.2.5 1.6 1.1zM119 91c3.4 8.5 6.5 16.1 6.7 16.7.3.7-.1 1.3-.9 1.3-1.4 0-14.8-31.1-14.8-34.5 0-3.9 2.6.9 9 16.5zm59-16.5c0 3.2-13.3 34.5-14.6 34.5-.8 0-1.4-.2-1.4-.6 0-.4 5.7-14.5 13.7-34.2.7-1.7 2.3-1.5 2.3.3zm-32 6c0 .8-.9 1.5-2 1.5-2 0-2.6-1.1-1.3-2.3 1.2-1.3 3.3-.7 3.3.8zm45.4 2.6c-.8 1.4-3.4 1.1-3.4-.4 0-.8.3-1.7.7-2 .9-.9 3.4 1.3 2.7 2.4zm-91.1-.6c.1.5-.6 1.1-1.5 1.3-1.1.2-1.8-.3-1.8-1.3 0-1.7 3-1.8 3.3 0zM89.4 94.8c5.3 6.6 6.7 9.2 4.7 9.2-1.4 0-13.1-15.1-12.5-16.1.8-1.3 1.5-.7 7.8 6.9zm116.9-5.5c-2.3 3.9-11.9 14.7-13.1 14.7-2 0-1.4-.9 5.6-9.4 3.5-4.2 6.7-7.4 7.3-7.1.5.4.6 1.2.2 1.8zm-20.6 1.2c.7 2-.2 2.9-2.1 2.2-.9-.4-1.3-1.3-1-2.2.8-1.9 2.3-1.9 3.1 0zm-79.9 1.2c-.2 1-1 1.8-1.8 1.8s-1.6-.8-1.8-1.8c-.2-1.2.3-1.7 1.8-1.7s2 .5 1.8 1.7zm40.2-.2c0 .8-.6 1.5-1.4 1.5-1.7 0-2.8-1.4-1.9-2.4 1.2-1.2 3.3-.6 3.3.9zm-14.2 4.8c.2 1.9-.1 2.7-1.2 2.7-1.1 0-1.6-1-1.6-3.1 0-3.8 2.4-3.5 2.8.4zm27.2-.9c0 2.4-1.6 4.3-2.7 3.2-.8-.8.6-5.6 1.7-5.6.6 0 1 1.1 1 2.4zm-48 5c0 2.1-2.1 3.1-3 1.5-.5-.7-.6-1.7-.4-2.1.9-1.4 3.4-.9 3.4.6zm70 0c0 .8-.4 1.7-.8 2-1.3.8-3.5-1.1-2.8-2.3 1-1.6 3.6-1.4 3.6.3zm-35.4.7c1 1.7-1.3 3.6-2.7 2.2-1.2-1.2-.4-3.3 1.1-3.3.5 0 1.2.5 1.6 1.1zm-11.4 9c.4 2.4.9 5.6 1.2 7.1.4 2 .1 2.8-.8 2.8-1.5 0-3.6-7.6-3.6-12.6 0-4.2 2.4-2.2 3.2 2.7zm22.8-3.9c0 .6-.5 4-1.1 7.5-.8 4.4-1.6 6.3-2.6 6.3-1.1 0-1.3-.7-.9-2.8.3-1.5.8-4.5 1.2-6.7.4-2.2.9-4.3 1.1-4.8.7-1.1 2.3-.8 2.3.5zm-99.4 5.3c-.5 1.4-.9 1.5-2.1.5-1.2-1-1.3-1.6-.4-2.7 1.5-1.8 3.4-.1 2.5 2.2zm37.8 7.5c12.6 10.3 15.2 13 12.6 13-1.4 0-28-21.9-28-23.1 0-2 2.4-.4 15.4 10.1zm20.6-8.9c0 2.4-2.3 2.1-2.8-.4-.2-1 .3-1.7 1.2-1.7 1 0 1.6.9 1.6 2.1zm59.4-1.3c.8 1.3-1.1 3.5-2.3 2.8-1.6-1-1.4-3.6.3-3.6.8 0 1.7.4 2 .8zm32.6.1c0 1.2-26.8 23.1-28.2 23.1-2.4 0 .7-3.2 12.8-13.2 12.1-10 15.4-12.2 15.4-9.9zm25.8 1.4c.2 1-.3 1.7-1.2 1.7-1.8 0-2.9-1.6-2.1-3.1.9-1.4 2.9-.6 3.3 1.4zM108 119.2c0 .5-.6.8-1.2.8-1.8 0-6.8-6.5-6.8-8.7.1-1.3 1.2-.6 4 2.7 2.2 2.5 4 4.8 4 5.2zm80-7.1c0 1.6-5.4 7.9-6.7 7.9-1.9 0-1.6-.7 1.8-5.6 2.9-3.9 4.9-4.9 4.9-2.3zm-42 .4c0 .8-.6 1.5-1.4 1.5-1.7 0-2.8-1.4-1.9-2.4 1.2-1.2 3.3-.6 3.3.9zm78.4 2.1c.9 2.3.8 2.4-1.4 2.4-1.9 0-2.7-2-1.3-3.3 1.1-1.1 2-.8 2.7.9zm-157 .2c.8 1.3-1.1 3.5-2.3 2.8-1.6-1-1.4-3.6.3-3.6.8 0 1.7.4 2 .8zm54.2 3.3c1 1.7-1.3 3.6-2.7 2.2-1.2-1.2-.4-3.3 1.1-3.3.5 0 1.2.5 1.6 1.1zm48.4 1c0 2.4-2.3 2.1-2.8-.4-.2-1 .3-1.7 1.2-1.7 1 0 1.6.9 1.6 2.1zm-93.4 1c1 1.7-1.3 3.6-2.7 2.2-1.2-1.2-.4-3.3 1.1-3.3.5 0 1.2.5 1.6 1.1zm139 0c.7 1.2-1.5 3.1-2.8 2.3-.4-.3-.8-1.2-.8-2 0-1.7 2.6-1.9 3.6-.3zm-70 2c1 1.7-1.3 3.6-2.7 2.2-1.2-1.2-.4-3.3 1.1-3.3.5 0 1.2.5 1.6 1.1zm-59.6 4c0 1.2-2.9 2.4-3.7 1.6-.3-.4-.3-1.3 0-2.1.6-1.6 3.7-1.1 3.7.5zm120.3-.6c.8 1.8-1.1 3.1-2.5 1.7-1.1-1.1-.3-3.2 1.2-3.2.4 0 1 .7 1.3 1.5zM79 135c0 1.7-2.5 1.1-7.6-1.6-8-4.4-9.5-5.4-8.9-6.4.7-1.1 16.5 6.6 16.5 8zm47.8-6.7c.2 1-.3 1.7-1.2 1.7-1.8 0-2.9-1.6-2.1-3.1.9-1.4 2.9-.6 3.3 1.4zm37.8-1.2c1 1.7-1.3 3.6-2.7 2.2-1.2-1.2-.4-3.3 1.1-3.3.5 0 1.2.5 1.6 1.1zm60.9.9c-.8 1.2-13.6 8-15.2 8-3.2 0-.7-2.3 6.5-5.9 7.1-3.6 10.1-4.3 8.7-2.1zm-28.5 3.6c0 .8-.6 1.4-1.4 1.4-1.8 0-2.9-2.7-1.3-3.3 1.6-.6 2.7.1 2.7 1.9zm-102-.3c0 1.9-1 2.7-2.6 2-2.1-.8-1.7-3.3.6-3.3 1.1 0 2 .6 2 1.3zm51 2.2c0 .8-.6 1.5-1.4 1.5-1.7 0-2.8-1.4-1.9-2.4 1.2-1.2 3.3-.6 3.3.9zm42 3.1c0 1.4-2.1 1.9-3.3.7-.9-.9 1.3-3.4 2.4-2.7.5.3.9 1.2.9 2zm-84.4-.5c1 1.7-1.3 3.6-2.7 2.2-1.2-1.2-.4-3.3 1.1-3.3.5 0 1.2.5 1.6 1.1zm28.4 1.5c0 1.4-2.1 1.9-3.3.7-.9-.9 1.3-3.4 2.4-2.7.5.3.9 1.2.9 2zm27.6-1.5c1 1.7-1.3 3.6-2.7 2.2-1.2-1.2-.4-3.3 1.1-3.3.5 0 1.2.5 1.6 1.1zm-46.9 5.4c.7 2-.2 2.9-2.1 2.2-.9-.4-1.3-1.3-1-2.2.8-1.9 2.3-1.9 3.1 0zm65.9-.4c.3.6.1 1.6-.5 2.2-.9.9-1.4.8-2.1-.3-.9-1.5-.4-3 1-3 .5 0 1.2.5 1.6 1.1zm-9 5c1 1.7-1.3 3.6-2.7 2.2-1.2-1.2-.4-3.3 1.1-3.3.5 0 1.2.5 1.6 1.1zm-47.8 1.6c-.4 2.2-2.2 2-2.6-.1-.2-1 .3-1.6 1.3-1.6s1.5.7 1.3 1.7zm43.8 17.8l13.3 6.8 8.5-.7c9.6-.7 31-6 43-10.5 4.4-1.7 8.3-2.8 8.8-2.5 2.7 1.7-.5 3.5-14.4 8.2-18.7 6.2-29.8 8.6-40.3 8.6-8.6.1-8.1.3-23.9-8.4-7-3.8-8.9-4.4-15.5-4.8-6.1-.3-8.7 0-13.4 1.8-5.2 1.9-5.6 2.4-5.1 4.6.4 1.5 0 3.4-1 4.9-2.2 3.3-.6 3.3 6.6 0 2.9-1.4 6.1-2.5 7-2.5 2.3 0 7.3 4.4 8.7 7.8 1.1 2.5 1.7 2.9 5.4 2.8 3.7-.1 4.4.3 5.7 2.9 1.3 2.5 2 3 4.7 2.7 5.6-.6 9 4.8 6.2 9.9-.8 1.6-.7 2.5.5 3.8 3.2 3.5 2 6.4-5.9 14-11 10.7-9.4 13.8 2.4 4.7 3-2.2 7.9-6 10.9-8.4 6.2-4.7 9.2-8.6 9.2-11.9 0-2.6 1.1-3.5 2.9-2.3 1 .5 1.2 1.9.7 4.5-.6 3.2-.5 3.6 1.1 3.1 2.4-.7 30.7-4.3 41.1-5.2 7.9-.6 8.4-.6 8 1.2-.3 1.6-1.6 2-8.3 2.6-21.1 2-38.2 4.1-42.4 5.4-2.9.8-8.2 4.2-14.1 8.9-5.2 4.1-11.4 8.5-13.8 9.6-5.6 2.8-13.2 2.7-17.9-.1-3.5-2.1-3.6-2.1-5.4-.1-3.4 3.6-5.6 3.6-11.5-.3-3-2-9.4-4.9-14.2-6.5-12.3-4-18.4-7.4-25.6-14-6.2-5.7-6.4-5.9-13.6-6.6-4-.4-12.3-.6-18.4-.4-9.4.3-11.1.2-11.1-1.1 0-1.1 1.7-1.7 6.5-2.3 8.1-1 26.5-.2 30.4 1.3 1.6.6 5.6 3.5 8.8 6.6 6.9 6.3 12 9.1 23.8 12.8 4.7 1.5 10.9 4.3 13.8 6.2 3 2 6 3.3 6.8 3 3-1.1 2.6-3.5-1-6.9-2-1.9-3.6-3.9-3.6-4.6 0-.6-4-3.1-8.8-5.5-4.8-2.4-9.4-5.1-10.1-6-1.3-1.5-.7-5.5.6-4.2.3.3 1.4-.7 2.4-2.3 3-4.9 19.3-15.1 24.2-15.1 1.4 0 3.1 1 4 2.2 2.4 3.7 3.1 1.2.7-2.6-3.3-5.4-4.7-5.8-10.2-3-6.2 3.2-13.9 3.3-16.9.3-1.2-1.2-1.9-2.9-1.6-4 .7-2.6.2-2.7-7.8-1.8-3.8.4-11.1 1.3-16.2 1.8-11.4 1.4-21.4.1-33-4.1-7.5-2.7-10.6-4.9-9.1-6.4.3-.2 5.2 1.1 10.9 3 13.6 4.5 20.5 5.1 35.4 3.2 6.5-.9 14.3-1.6 17.1-1.6 4.1 0 6.3-.7 10.1-3 8.4-5.2 14.9-7.1 23.1-6.7 6.8.4 8.5 1 20.8 7.2zM57 192.6c0 1.4-.9 1.6-5.1 1.2-7.8-.8-8.7-2.8-1.1-2.8 5.1 0 6.2.3 6.2 1.6zm171 2.3c0 1.1-3.6 2.1-7.7 2.1-2.3 0-3.3-.5-3.3-1.5 0-1.2 1.3-1.5 5.5-1.5 3 0 5.5.4 5.5.9z"/><path d="M119.6 171.2c-.9 1.2-1.3 2.4-1.1 2.7.6.5 4.5-2.9 4.5-4.1 0-1.5-1.9-.8-3.4 1.4zM135.3 185.3c-1.8 1-1.9 1.5-.9 2.8 1 1.4 1.5 1.5 2.9.4 1.7-1.2 2.4-4.5 1-4.5-.5.1-1.8.6-3 1.3zM151.5 185.4c-1.4 1-1.5 1.7-.7 3.3.6 1.1.8 2.3.5 2.7-1.3 1.2-3.2.5-3.8-1.4-.7-2.1-.7-2-5.3.6-6.1 3.5-12.9 9-14.2 11.5-1.2 2.1.2 5.9 2.2 5.9.7 0 3-1.8 5.3-3.9 2.2-2.2 7.6-6.4 12-9.3 5.1-3.4 8.1-6.1 8.3-7.5.4-2.5-2-3.6-4.3-1.9zM123.2 192.7c-7 4.8-8.4 10.3-2.7 10.3 1.6 0 3-1.1 4.4-3.3 1.1-1.8 3.4-4.3 5.1-5.5 2.5-1.9 2.9-2.6 1.9-3.8-1.7-2.1-3-1.8-8.7 2.3zM153.1 196.2c-10 5.6-17.6 11.7-18.6 14.8-.7 2.2 1 6 2.7 6 .6 0 2.6-1.5 4.4-3.4 1.8-1.9 6.5-5.4 10.3-7.7 6.4-4 6.9-4.6 6.4-7.1-.6-3 1.2-3.9 3.5-1.6 1.5 1.5 5.2-1.6 5.2-4.4 0-3.1-3.9-2.1-13.9 3.4zM155.5 207.9c-9.1 5.6-14 10.3-13.2 12.5.7 1.9 4.4 4.3 8 5.1 2.4.6 2.7.4 2.7-1.8 0-1.4 1.7-4.3 4.1-7 3.5-4 3.9-4.9 2.9-6.8-1.5-2.7-.6-3.5 2.3-2.2 2.9 1.3 5.7 0 5.7-2.7 0-3.3-4-2.4-12.5 2.9z"/></svg>